# Blender 4.2.3 LTS
# www.blender.org
mtllib rock2.mtl
o rock_2
v 0.265104 0.855693 -0.255577
v 0.585455 0.218630 0.038570
v -0.138954 0.933137 -0.362503
v -0.059779 0.686825 0.374102
v -0.484605 0.589331 -0.269606
v 0.018523 -0.664043 -0.332689
v 0.455014 -0.436294 0.436601
v -0.106674 -0.726056 0.447052
v -0.623405 0.722553 0.000735
v -0.540220 0.151452 0.255886
v -0.486153 -0.726309 0.399982
v -0.594145 -0.551996 -0.258051
v 0.637858 -0.677124 -0.151393
v 0.664121 -0.762427 -0.004047
v 0.631292 -0.436731 0.198450
v 0.340804 0.430317 0.368249
v 0.178780 0.947087 -0.088961
v -0.279880 0.970658 0.045976
v -0.123737 -0.992957 0.169599
v 0.245251 -0.949893 0.231532
v -0.589385 -0.770393 0.060011
vn 0.6538 0.5150 -0.5544
vn 0.9639 0.2662 -0.0091
vn -0.1159 0.6422 -0.7577
vn -0.0271 0.4829 0.8753
vn -0.5979 0.1696 -0.7834
vn 0.0406 -0.4752 -0.8789
vn 0.4924 -0.1405 0.8590
vn -0.0305 -0.3421 0.9392
vn -0.8774 0.4627 0.1269
vn -0.7447 0.0668 0.6640
vn -0.5737 -0.3605 0.7355
vn -0.7036 -0.3094 -0.6397
vn 0.6854 -0.3565 -0.6349
vn 0.7847 -0.6197 -0.0152
vn 0.9171 -0.0850 0.3896
vn 0.5332 0.3486 0.7708
vn 0.4672 0.8711 0.1510
vn -0.2996 0.9020 0.3110
vn -0.1145 -0.9926 0.0398
vn 0.3201 -0.9018 0.2901
vn -0.7926 -0.6013 -0.1013
vt 0.259997 0.640207
vt 0.410822 0.366730
vt 0.431685 0.808177
vt 0.233917 0.222770
vt 0.115669 0.341624
vt 0.063552 0.219290
vt 0.033213 0.485471
vt 0.141290 0.419084
vt 0.234399 0.675917
vt 0.759748 0.566014
vt 0.841305 0.614127
vt 0.647687 0.784485
vt 0.474864 0.149050
vt 0.346706 0.220260
vt 0.442527 0.085028
vt 0.516925 0.290632
vt 0.459403 0.341937
vt 0.552022 0.925626
vt 0.408653 0.945295
vt 0.388309 0.865450
vt 0.763546 0.501574
vt 0.650916 0.494554
vt 0.668749 0.024261
vt 0.169227 0.806335
vt 0.070232 0.804190
vt 0.259467 0.342676
vt 0.916591 0.736476
vt 0.794129 0.817958
vt 0.864612 0.388028
vt 0.207471 0.907610
vt 0.071039 0.964425
vt 0.245020 0.033380
vt 0.274195 0.364661
vt 0.240543 0.372580
vt 0.859208 0.483864
vt 0.982949 0.598226
vt 0.580185 0.462121
vt 0.538842 0.676081
vt 0.483460 0.041631
vt 0.328220 0.860700
vt 0.594974 0.972088
vt 0.842021 0.030356
vt 0.029561 0.076218
s 1
usemtl rock_2
f 10/1/10 8/2/8 4/3/4
f 19/4/19 11/5/11 21/6/21
f 12/7/12 21/8/21 10/9/10
f 1/10/1 17/11/17 2/12/2
f 14/13/14 20/14/20 13/15/13
f 20/14/20 15/16/15 7/17/7
f 15/18/15 14/19/14 13/20/13
f 3/21/3 1/22/1 6/23/6
f 12/7/12 9/24/9 5/25/5
f 20/14/20 8/26/8 19/4/19
f 4/27/4 16/28/16 17/11/17
f 5/29/5 3/21/3 6/23/6
f 18/30/18 3/31/3 9/24/9
f 19/4/19 21/6/21 6/32/6
f 11/33/11 8/2/8 10/1/10
f 19/4/19 8/26/8 11/5/11
f 11/34/11 10/9/10 21/8/21
f 9/24/9 12/7/12 10/9/10
f 3/35/3 18/36/18 17/11/17
f 6/32/6 13/15/13 20/14/20
f 20/14/20 19/4/19 6/32/6
f 7/17/7 8/26/8 20/14/20
f 20/14/20 14/13/14 15/16/15
f 13/20/13 1/10/1 2/12/2
f 13/20/13 2/12/2 15/18/15
f 7/37/7 16/38/16 8/2/8
f 4/3/4 8/2/8 16/38/16
f 13/39/13 6/23/6 1/22/1
f 2/12/2 17/11/17 16/28/16
f 18/36/18 4/27/4 17/11/17
f 9/24/9 3/31/3 5/25/5
f 18/30/18 9/24/9 4/40/4
f 15/18/15 2/12/2 16/28/16
f 16/28/16 7/41/7 15/18/15
f 4/40/4 9/24/9 10/9/10
f 3/35/3 17/11/17 1/10/1
f 6/23/6 12/42/12 5/29/5
f 12/43/12 6/32/6 21/6/21
